<?xml version="1.0" standalone="no"?><!DOCTYPE svg PUBLIC "-//W3C//DTD SVG 1.1//EN" "http://www.w3.org/Graphics/SVG/1.1/DTD/svg11.dtd"><svg t="1519711450382" class="icon" style="" viewBox="0 0 1024 1024" version="1.1" xmlns="http://www.w3.org/2000/svg" p-id="2300" xmlns:xlink="http://www.w3.org/1999/xlink" width="200" height="200"><defs><style type="text/css"></style></defs><path d="M942.98843 352.426655 669.502685 78.003562c-9.68764-9.748015-22.705118-15.139815-36.527938-15.139815-13.823843 0-26.845415 5.3918-36.534078 15.139815l-15.134699 15.188934c-14.987343 15.037485-25.834388 41.315988-25.834388 62.579267l0 51.846832c0 7.367805-5.500271 20.685111-10.69969 25.923416L400.463206 378.349047c-5.195326 5.242398-18.515702 10.733459-25.834388 10.733459l-51.668777 0c-21.195741 0-47.381124 10.885931-62.369489 25.923416l-15.134699 15.187911c-20.13048 20.230764-20.13048 53.089126 0 73.315796l80.276325 80.504522L69.913814 917.674393c-7.874341 10.330276-6.967692 24.912389 2.217505 34.128285 5.048993 5.010107 11.654434 7.543813 18.317181 7.543813 5.499248 0 11.04966-1.771343 15.795754-5.41943l332.468091-256.599146 80.223113 80.504522c9.740852 9.720386 22.757307 15.137769 36.535101 15.137769 13.82282 0 26.840298-5.417383 36.527938-15.137769l15.140839-15.188934c14.988366-15.040555 25.834388-41.313941 25.834388-62.579267L632.973724 648.216381c0-7.394411 5.446036-20.658506 10.69355-25.924439l144.31278-144.806014c5.248537-5.241374 18.470677-10.733459 25.834388-10.733459l51.668777 0c21.189601 0 47.382147-10.886955 62.362326-25.923416l15.140839-15.189957c9.688663-9.746992 15.08865-22.811542 15.08865-36.656875 0-13.847379-5.399987-26.912953-15.08865-36.656875L942.986383 352.426655zM231.679082 791.704376 362.571201 620.974947l39.255049 39.393195L231.679082 791.704376zM891.319653 404.273487c-5.246491 5.241374-18.46863 10.733459-25.834388 10.733459l-51.668777 0c-21.195741 0-47.3801 10.884908-62.368466 25.923416L607.139336 585.735351c-14.989389 15.035438-25.834388 41.314964-25.834388 62.579267l0 51.846832c0 7.395434-5.453199 20.658506-10.69969 25.922393l-15.081487 15.141862-0.053212 0 0 0.050142L281.983791 466.852754l15.140839-15.189957c5.194302-5.239328 18.515702-10.733459 25.834388-10.733459l51.668777 0c21.190625 0 47.381124-10.887978 62.364373-25.923416l144.31278-144.806014c14.988366-15.037485 25.834388-41.315988 25.834388-62.581314l0-51.846832c0-7.366781 5.447059-20.683065 10.69355-25.922393l15.140839-15.189957 273.479605 274.423093L891.319653 404.273487z" p-id="2301"></path></svg>